# xmcd
#
# Track frame offsets:
#	150
#	18804
#	45491
#	67087
#	89351
#	108768
#	149276
#	175068
#	194336
#	232586
#	248257
#	278711
#	304919
#
# Disc length: 4528 seconds
#
# Revision: 2
# Processed by: cddbd v1.5.2PL0 Copyright (c) Steve Scherf et al.
# Submitted via: audiograbber 1.83.01
#
DISCID=9c11ae0d
DTITLE=—борник - Time Blues  Vol.19
DYEAR=2003
DGENRE=Blues
TTITLE0=Scott Ellison - Shoold'a Been Cut And Gone
TTITLE1=Neal Black - You re Gonna Make It
TTITLE2=Guitar Shorty - Just Warning Up
TTITLE3=Colin James - I'm Losing Vou
TTITLE4=Jonny Lang - Dying To Live
TTITLE5=Tom Principato - Very Blue
TTITLE6=Rah McCullough - When The Blues Comes Colling
TTITLE7=The Radio Kings - Drownin'
TTITLE8=Ronnie Earl - Blues For Otis Rush
TTITLE9=Eric Bibb - Home Lovin' Man
TTITLE10=Tommy Castro, Jimmy Hall and Lloyd Jones - Be Careful With and Fool
TTITLE11=The Griswalds - The Good, The Bad The Ugly 
TTITLE12=The Butler Twins - I Know You Don't Love Me Baby
EXTD=
EXTT0=
EXTT1=
EXTT2=
EXTT3=
EXTT4=
EXTT5=
EXTT6=
EXTT7=
EXTT8=
EXTT9=
EXTT10=
EXTT11=
EXTT12=
PLAYORDER=
